<?xml version="1.0" encoding="UTF-8"?><svg id="Design" xmlns="http://www.w3.org/2000/svg" viewBox="0 0 2164 2164"><defs><style>.cls-1{fill:#25311c;}</style></defs><path class="cls-1" d="M1947.63,956.4c28.54-39.53,43.35-81.59,43.35-125.07,0-112.27-98.67-215.05-277.83-289.42-169.12-70.2-393.19-108.86-630.94-108.86-54.89,0-109.86,2.1-163.38,6.23-44.34,3.42-88.39,8.3-130.93,14.5l10.38,71.25c40.94-5.96,83.36-10.66,126.09-13.96,51.68-3.99,104.79-6.01,157.83-6.01,115.74,0,227.95,9.4,333.49,27.93,101.33,17.79,192.12,43.17,269.84,75.43,74.81,31.05,135.54,68.26,175.63,107.6,38.35,37.64,57.8,76.44,57.8,115.32,0,23.65-7.21,47.27-21.48,70.62-45.73-40.56-107.5-77.41-183.93-109.11-169.16-70.14-393.28-108.77-631.09-108.77s-461.94,38.63-631.09,108.77c-179.21,74.31-277.91,177.03-277.91,289.23,0,43.3,14.71,85.19,43.07,124.57-28.99,39.81-44.03,82.2-44.03,126.02,0,112.27,98.67,215.05,277.82,289.42,169.12,70.2,393.19,108.86,630.94,108.86,54.89,0,109.86-2.1,163.38-6.23,44.34-3.42,88.39-8.3,130.93-14.5l-10.38-71.25c-40.94,5.96-83.36,10.66-126.09,13.96-51.68,3.99-104.78,6.01-157.83,6.01-115.74,0-227.94-9.4-333.49-27.93-101.33-17.79-192.12-43.17-269.84-75.43-74.81-31.05-135.54-68.26-175.63-107.6-38.35-37.64-57.8-76.44-57.8-115.32,0-23.91,7.36-47.78,21.94-71.37,45.83,40.91,107.94,78.08,184.93,110,169.16,70.14,393.28,108.77,631.09,108.77s461.94-38.63,631.09-108.77c179.21-74.31,277.91-177.03,277.91-289.23,0-43.7-14.98-85.97-43.85-125.67Zm-85.95,240.87c-40.1,39.31-100.84,76.49-175.68,107.52-77.74,32.24-168.56,57.6-269.92,75.38-105.58,18.52-217.82,27.91-333.59,27.91s-228.01-9.39-333.59-27.91c-101.36-17.78-192.18-43.14-269.92-75.38-68.72-28.49-125.54-62.17-165.42-97.92,39.81-35.45,96.26-68.84,164.4-97.12,77.72-32.26,168.51-57.64,269.84-75.43,105.55-18.53,217.75-27.93,333.49-27.93v-72c-237.75,0-461.82,38.66-630.94,108.86-76.26,31.66-137.93,68.47-183.62,108.96-14.11-23.19-21.23-46.65-21.23-70.14,0-38.84,19.45-77.6,57.81-115.2,40.1-39.31,100.84-76.49,175.68-107.52,77.74-32.24,168.56-57.6,269.92-75.38,105.58-18.52,217.82-27.91,333.59-27.91s228.01,9.39,333.59,27.91c101.36,17.78,192.18,43.14,269.92,75.38,68.25,28.3,124.77,61.71,164.6,97.19-39.85,35.67-96.54,69.27-165.05,97.71-77.72,32.26-168.51,57.64-269.84,75.43-105.55,18.53-217.75,27.93-333.49,27.93v72c237.75,0,461.82-38.66,630.94-108.86,76.76-31.86,138.73-68.95,184.51-109.76,14.49,23.5,21.81,47.27,21.81,71.08,0,38.84-19.45,77.6-57.81,115.2Z"/></svg>