<?xml version="1.0" encoding="UTF-8"?><svg id="Design" xmlns="http://www.w3.org/2000/svg" viewBox="0 0 2164 556"><defs><style>.cls-1{fill:#caffa0;}</style></defs><ellipse class="cls-1" cx="1161.48" cy="212.58" rx="25.1" ry="10.41"/><g><path class="cls-1" d="M353.63,302.82v-11.92c38.12,0,73.87-6.12,100.65-17.24,24.76-10.28,38.96-23.85,38.96-37.23s-14.2-26.95-38.96-37.23c-26.79-11.12-62.54-17.24-100.65-17.24-8.85,0-17.71,.34-26.33,1-7.13,.55-14.21,1.33-21.04,2.33l-1.72-11.79c7.09-1.03,14.44-1.85,21.84-2.42,8.92-.69,18.09-1.04,27.25-1.04,39.65,0,77.02,6.45,105.22,18.15,29.87,12.4,46.31,29.53,46.31,48.23s-16.45,35.84-46.31,48.23c-28.2,11.71-65.57,18.15-105.22,18.15Z"/><path class="cls-1" d="M353.47,386.44c-39.65,0-77.02-6.45-105.22-18.15-29.87-12.4-46.31-29.53-46.31-48.23s16.45-35.84,46.31-48.23c28.2-11.71,65.57-18.15,105.22-18.15v11.92c-38.12,0-73.87,6.12-100.65,17.24-24.76,10.28-38.96,23.85-38.96,37.23s14.2,26.95,38.96,37.23c26.79,11.12,62.54,17.24,100.65,17.24,8.85,0,17.71-.34,26.33-1,7.14-.55,14.21-1.33,21.03-2.33l1.72,11.79c-7.08,1.03-14.43,1.85-21.84,2.42-8.93,.69-18.1,1.04-27.25,1.04Z"/><path class="cls-1" d="M353.68,344.59c-39.66,0-77.04-6.44-105.25-18.14-29.87-12.39-46.33-29.51-46.33-48.2s16.45-35.81,46.33-48.2c28.21-11.7,65.59-18.14,105.25-18.14s77.04,6.44,105.25,18.14c29.87,12.39,46.33,29.51,46.33,48.2s-16.45,35.81-46.33,48.2c-28.21,11.7-65.59,18.14-105.25,18.14Zm0-120.76c-38.13,0-73.89,6.12-100.68,17.23-24.77,10.27-38.97,23.83-38.97,37.19s14.21,26.92,38.97,37.19c26.8,11.11,62.55,17.23,100.68,17.23s73.89-6.12,100.68-17.23c24.77-10.27,38.97-23.83,38.97-37.19s-14.21-26.92-38.97-37.19c-26.8-11.11-62.55-17.23-100.68-17.23Z"/></g><path class="cls-1" d="M803.58,246.71c0,39.61-30.75,64.89-78.44,64.89h-71.92v58.63h-52.64V185.21h125.61c48.47,0,77.4,23.19,77.4,61.5Zm-55.51,1.3c0-17.72-12.51-27.36-34.66-27.36h-60.2v55.51h59.94c21.89,0,34.92-10.16,34.92-28.14Z"/><path class="cls-1" d="M811.15,305.08c0-42.48,40.13-70.1,100.85-70.1s101.11,27.62,101.11,70.1-40.13,70.1-101.11,70.1-100.85-27.62-100.85-70.1Zm149.58,0c0-23.19-19.28-38.05-48.73-38.05s-48.73,14.85-48.73,38.05,19.54,38.05,48.73,38.05,48.73-14.85,48.73-38.05Z"/><path class="cls-1" d="M1092.34,370.23h-50.29V181.3h50.29v188.93Z"/><path class="cls-1" d="M1136.38,239.93h50.29v130.3h-50.29V239.93Z"/><path class="cls-1" d="M1278.67,239.93v28.93c9.64-21.89,30.75-33.88,58.64-33.88s48.47,11.73,58.11,33.88c12.51-22.15,34.66-33.88,63.33-33.88,42.48,0,65.67,24.5,65.67,69.58v65.67h-50.29v-59.15c0-25.8-11.99-39.61-34.66-39.61s-37.53,15.12-37.53,40.13v58.63h-50.03v-58.89c0-26.58-11.47-39.87-34.66-39.87s-37.53,15.38-37.53,41.43v57.33h-50.29V239.93h49.25Z"/><path class="cls-1" d="M1743.32,316.03h-145.15c3.91,17.46,22.15,27.62,51.6,27.62,21.63,0,40.39-7.3,50.03-19.28l38.57,16.68c-18.24,21.89-48.73,34.14-90.69,34.14-61.24,0-97.99-25.8-97.99-69.58s38.05-70.62,96.68-70.62c61.5,0,96.94,27.62,96.94,73.75v7.3Zm-50.03-26.06c-.52-16.42-19.81-27.88-47.17-27.88s-45.08,10.95-48.21,27.88h95.38Z"/><path class="cls-1" d="M1763.92,304.56c0-43.26,38.05-69.58,100.59-69.58,52.64,0,87.82,18.24,96.42,50.82l-53.16,6.77c-5.21-15.37-20.85-24.24-44.82-24.24-28.93,0-46.91,13.81-46.91,35.96s18.76,37.01,46.91,37.01c24.5,0,39.87-8.34,45.08-24.24l52.9,7.56c-8.34,31.27-45.34,50.56-96.94,50.56-61.5,0-100.07-27.36-100.07-70.62Z"/><g><path class="cls-1" d="M1940.94,205.57v14.38h-3.3v-14.38h-5.19v-2.68h13.76v2.68h-5.26Z"/><path class="cls-1" d="M1953.72,209.3l1.84-6.41h4.09v17.06h-3.02v-5.05l.14-7.98-2.24,7.41h-1.63l-2-7.09,.14,7.66v5.05h-3.02v-17.06h4.09l1.62,6.41Z"/></g></svg>