<?xml version="1.0" encoding="UTF-8"?><svg id="Design" xmlns="http://www.w3.org/2000/svg" viewBox="0 0 2164 2164"><defs><style>.cls-1{fill:#caffa0;}</style></defs><path class="cls-1" d="M1082.22,1229.61v-72c115.74,0,227.94-9.4,333.49-27.93,101.33-17.79,192.12-43.17,269.84-75.43,74.81-31.05,135.54-68.26,175.63-107.6,38.35-37.64,57.8-76.44,57.8-115.32s-19.45-77.68-57.8-115.32c-40.08-39.34-100.81-76.54-175.63-107.6-77.72-32.26-168.51-57.64-269.84-75.43-105.55-18.53-217.75-27.93-333.49-27.93-53.05,0-106.15,2.02-157.83,6.01-42.73,3.3-85.15,8-126.09,13.96l-10.38-71.25c42.54-6.2,86.59-11.08,130.93-14.5,53.52-4.13,108.49-6.23,163.38-6.23,237.75,0,461.82,38.66,630.94,108.86,179.16,74.37,277.83,177.15,277.83,289.42s-98.67,215.05-277.83,289.42c-169.12,70.2-393.19,108.86-630.94,108.86Z"/><path class="cls-1" d="M1081.28,1730.95c-237.75,0-461.82-38.66-630.94-108.86-179.16-74.37-277.83-177.15-277.83-289.42s98.67-215.05,277.83-289.42c169.12-70.2,393.19-108.86,630.94-108.86v72c-115.74,0-227.94,9.4-333.49,27.93-101.33,17.79-192.12,43.17-269.84,75.43-74.81,31.05-135.54,68.26-175.63,107.6-38.35,37.64-57.8,76.44-57.8,115.32s19.45,77.68,57.8,115.32c40.08,39.34,100.81,76.54,175.63,107.6,77.72,32.26,168.51,57.64,269.84,75.43,105.55,18.53,217.75,27.93,333.49,27.93,53.05,0,106.15-2.02,157.83-6.01,42.73-3.3,85.15-8,126.09-13.96l10.38,71.25c-42.54,6.2-86.59,11.08-130.93,14.5-53.52,4.13-108.49,6.23-163.38,6.23Z"/><path class="cls-1" d="M1082.48,1480.07c-237.81,0-461.94-38.63-631.09-108.77-179.21-74.31-277.91-177.03-277.91-289.23s98.7-214.92,277.91-289.23c169.16-70.14,393.28-108.77,631.09-108.77s461.94,38.63,631.09,108.77c179.21,74.31,277.91,177.03,277.91,289.23s-98.7,214.92-277.91,289.23c-169.16,70.14-393.28,108.77-631.09,108.77Zm0-724c-115.78,0-228.01,9.39-333.59,27.91-101.36,17.78-192.18,43.14-269.92,75.38-74.83,31.03-135.58,68.21-175.68,107.52-38.36,37.6-57.81,76.36-57.81,115.2s19.45,77.6,57.81,115.2c40.09,39.31,100.84,76.49,175.68,107.52,77.74,32.24,168.56,57.6,269.92,75.38,105.58,18.52,217.82,27.91,333.59,27.91s228.01-9.39,333.59-27.91c101.36-17.78,192.18-43.14,269.92-75.38,74.83-31.03,135.58-68.21,175.68-107.52,38.36-37.6,57.81-76.36,57.81-115.2s-19.45-77.6-57.81-115.2c-40.1-39.31-100.84-76.49-175.68-107.52-77.74-32.24-168.56-57.6-269.92-75.38-105.58-18.52-217.82-27.91-333.59-27.91Z"/></svg>