<svg width="360" height="360" viewBox="0 0 360 360" fill="none" xmlns="http://www.w3.org/2000/svg">
<path d="M180 360C279.411 360 360 279.411 360 180C360 80.5887 279.411 0 180 0C80.5887 0 0 80.5887 0 180C0 279.411 80.5887 360 180 360Z" fill="#25311C"/>
<g clip-path="url(#clip0_2340_444)">
<path d="M180.028 199.1V189.6C195.299 189.6 210.105 188.36 224.03 185.915C237.4 183.568 249.379 180.219 259.633 175.963C269.504 171.866 277.517 166.956 282.806 161.766C287.866 156.799 290.433 151.68 290.433 146.55C290.433 141.42 287.866 136.301 282.806 131.335C277.518 126.144 269.505 121.236 259.633 117.137C249.379 112.881 237.4 109.532 224.03 107.185C210.103 104.74 195.299 103.5 180.028 103.5C173.029 103.5 166.023 103.766 159.204 104.293C153.566 104.728 147.969 105.348 142.567 106.135L141.198 96.7338C146.81 95.9158 152.622 95.2719 158.473 94.8207C165.534 94.2757 172.787 93.9987 180.03 93.9987C211.399 93.9987 240.963 99.0996 263.278 108.362C286.916 118.175 299.935 131.736 299.935 146.549C299.935 161.362 286.916 174.923 263.278 184.736C240.963 193.998 211.399 199.099 180.03 199.099L180.028 199.1Z" fill="#CAFFA0"/>
<path d="M179.904 265.249C148.535 265.249 118.971 260.148 96.6564 250.885C73.0188 241.073 60 227.512 60 212.698C60 197.885 73.0188 184.324 96.6577 174.511C118.972 165.249 148.536 160.148 179.906 160.148V169.648C164.635 169.648 149.831 170.888 135.904 173.333C122.534 175.681 110.555 179.029 100.301 183.286C90.43 187.383 82.4171 192.292 77.1275 197.483C72.0675 202.449 69.5012 207.568 69.5012 212.698C69.5012 217.828 72.0675 222.948 77.1275 227.914C82.4158 233.105 90.4287 238.013 100.301 242.111C110.555 246.368 122.534 249.716 135.904 252.064C149.831 254.508 164.635 255.749 179.906 255.749C186.905 255.749 193.911 255.482 200.73 254.956C206.368 254.52 211.965 253.9 217.367 253.114L218.736 262.515C213.124 263.333 207.312 263.977 201.461 264.428C194.4 264.973 187.147 265.25 179.904 265.25V265.249Z" fill="#CAFFA0"/>
<path d="M180.064 232.147C148.687 232.147 119.115 227.05 96.7964 217.795C73.1496 207.991 60.1282 194.438 60.1282 179.634C60.1282 164.83 73.1509 151.276 96.7964 141.472C119.116 132.217 148.687 127.12 180.064 127.12C211.441 127.12 241.014 132.217 263.332 141.472C286.977 151.276 300 164.83 300 179.634C300 194.438 286.977 207.991 263.332 217.795C241.013 227.05 211.441 232.147 180.064 232.147ZM180.064 136.62C164.788 136.62 149.98 137.859 136.049 140.303C122.676 142.649 110.693 145.995 100.435 150.249C90.5621 154.343 82.5466 159.248 77.2557 164.435C72.1943 169.396 69.6281 174.51 69.6281 179.635C69.6281 184.76 72.1943 189.874 77.2557 194.835C82.5466 200.021 90.5608 204.927 100.435 209.021C110.693 213.275 122.676 216.621 136.049 218.967C149.98 221.411 164.789 222.65 180.064 222.65C195.339 222.65 210.148 221.411 224.079 218.967C237.453 216.621 249.436 213.275 259.693 209.021C269.566 204.927 277.582 200.021 282.873 194.835C287.934 189.874 290.5 184.76 290.5 179.635C290.5 174.51 287.934 169.396 282.873 164.435C277.582 159.248 269.568 154.343 259.693 150.249C249.436 145.995 237.453 142.649 224.079 140.303C210.148 137.859 195.339 136.62 180.064 136.62Z" fill="#CAFFA0"/>
</g>
<defs>
<clipPath id="clip0_2340_444">
<rect width="240" height="171.249" fill="white" transform="translate(60 94)"/>
</clipPath>
</defs>
</svg>
